<svg xmlns="http://www.w3.org/2000/svg" viewBox="0 0 95.33 106.76"><defs><style>.cls-1{isolation:isolate;}.cls-2{fill:#288f98;}.cls-3{fill:#f2f2f2;}.cls-4{fill:#c1c1c1;mix-blend-mode:multiply;}.cls-5{fill:#3f475e;}</style></defs><g class="cls-1"><g id="Layer_2" data-name="Layer 2"><g id="OBJECTS"><path class="cls-2" d="M48,39.9c-16.07,0-29.1,12.42-29.1,27.73a26.87,26.87,0,0,0,7.2,18.25h0l.13.13a29.07,29.07,0,0,0,2.48,2.36L48,106.76,67.06,88.59a27.14,27.14,0,0,0,10-21C77.11,52.32,64.09,39.9,48,39.9Z"/><polygon class="cls-3" points="59.29 48.02 48.41 58.72 37.53 48.02 26.65 59.91 48.41 86.06 70.17 59.91 59.29 48.02"/><polygon class="cls-4" points="59.29 48.02 63.94 59.85 48.41 86.06 70.17 59.91 59.29 48.02"/><path class="cls-5" d="M41.37,9.42c3.46,6.79,7,16.25.94,24.57-4.89,6.75-15.12,7.07-19.81-.73C20,29.05,18,15.25,24.26,6.48S38.26,3.31,41.37,9.42Z"/><path class="cls-5" d="M14.58,28.39C19,33,24.06,39.9,21.57,48.54c-2,7-9.8,10.24-15.38,5.11C3.17,50.88-1.87,40,.71,30.88S10.64,24.21,14.58,28.39Z"/><path class="cls-5" d="M52.48,9.52C49.16,17,46,27.23,53.1,34.46c5.79,5.88,17,4.25,21.57-4.5C77.15,25.23,78.39,11,71,3.31S55.46,2.77,52.48,9.52Z"/><path class="cls-5" d="M78,31.29c-4.11,5-8.67,12-4.67,18.05,3.25,4.93,12.2,5.11,17.54-.64,2.88-3.11,6.79-13.25,2.63-19.66S81.71,26.79,78,31.29Z"/></g></g></g></svg>